# generated from PmQm by Jehee Lee
:FULLY-SPECIFIED
:DEGREES
1
root 12.2389 39.9005 4.55884 -95.6859 88.6569 -90.6694
RightUpLeg 3.17065 1.86768 2.35972
RightLeg 2.74598 4.90271 -1.13365
RightFoot -0.509557 -0.416184 3.83864
RightToes 4.07452e-010 -1.59028e-015 9.93923e-017
Spine -1.13801 -1.07264 0.508605
Spine1 9.2117 -1.46547 0.797206
HEad -21.4746 -0.609372 2.47866
LeftShoulder1 9.93923e-017 -0 1.22299e-017
LeftArm 2.3963 37.4324 -79.8725
LeftForeArm -17.4831 -13.7861 -2.6728
LeftHand 1.24116 10.2346 -7.31914
RightShoulder 1.98785e-016 -4.96962e-017 1.55301e-017
RightArm 19.8703 -40.8156 83.6056
RightForeArm -37.1928 18.7478 -8.32674
RightHand 1.68189 -15.5632 -2.90706
LeftUpLeg -0.587718 -1.53526 1.32612
LeftLeg 9.57263 -2.94423 3.66072
LeftFoot -3.56562 0.266399 -3.32501
LeftToes 1.53707e-010 -1.11459e-010 1.58109e-011
2
root 12.2573 39.9005 4.54775 -95.1574 88.6606 -90.1017
RightUpLeg 3.24746 1.83024 2.328
RightLeg 2.73769 4.95943 -1.10718
RightFoot -0.531038 -0.414481 3.82074
RightToes 4.07452e-010 -1.59028e-015 9.93923e-017
Spine -1.13848 -1.05163 0.578018
Spine1 9.21054 -1.43139 0.738502
HEad -21.5222 -0.773516 2.49776
LeftShoulder1 9.93923e-017 -0 1.22299e-017
LeftArm 2.21844 37.5426 -79.9485
LeftForeArm -17.1968 -13.7186 -2.70293
LeftHand 1.23916 10.2983 -7.51653
RightShoulder 1.98785e-016 -4.96962e-017 1.55301e-017
RightArm 20.2018 -40.9467 83.6269
RightForeArm -37.3245 18.7927 -8.49671
RightHand 1.69843 -15.6342 -3.00261
LeftUpLeg -0.506386 -1.51694 1.31829
LeftLeg 9.55733 -2.94236 3.66265
LeftFoot -3.58185 0.262683 -3.28809
LeftToes 1.53707e-010 -1.11459e-010 1.58109e-011
3
root 12.29 39.9005 4.52993 -96.2071 88.6803 -91.1155
RightUpLeg 3.34949 1.73601 2.23662
RightLeg 2.72646 5.04712 -1.05591
RightFoot -0.576558 -0.41349 3.81032
RightToes 4.07452e-010 -1.59028e-015 9.93923e-017
Spine -1.19021 -1.0449 0.631058
Spine1 9.24289 -1.40658 0.668201
HEad -21.6833 -1.08362 2.49199
LeftShoulder1 9.93923e-017 -0 1.22299e-017
LeftArm 2.1386 37.7129 -80.0759
LeftForeArm -16.9354 -13.6693 -2.73216
LeftHand 1.23536 10.3087 -7.69107
RightShoulder 1.98785e-016 -4.96962e-017 1.55301e-017
RightArm 20.7125 -41.1537 83.6521
RightForeArm -37.522 18.8578 -8.74102
RightHand 1.71448 -15.7376 -3.04394
LeftUpLeg -0.390313 -1.55269 1.2569
LeftLeg 9.51455 -2.9099 3.6724
LeftFoot -3.59624 0.259897 -3.26042
LeftToes 1.53707e-010 -1.11459e-010 1.58109e-011
4
root 12.3218 39.9005 4.51373 -98.7523 88.7072 -93.6708
RightUpLeg 3.41143 1.65024 2.14536
RightLeg 2.69839 5.09373 -1.01463
RightFoot -0.613925 -0.413935 3.815
RightToes 4.07452e-010 -1.59028e-015 9.93923e-017
Spine -1.34743 -1.07562 0.632836
Spine1 9.38253 -1.42891 0.63263
HEad -21.9879 -1.33698 2.47748
LeftShoulder1 9.93923e-017 -0 1.22299e-017
LeftArm 2.12502 37.8319 -80.1993
LeftForeArm -16.7637 -13.6506 -2.74693
LeftHand 1.22854 10.2012 -7.64921
RightShoulder 1.98785e-016 -4.96962e-017 1.55301e-017
RightArm 20.7924 -41.2487 83.652
RightForeArm -37.397 18.8531 -8.72194
RightHand 1.69787 -15.764 -2.80821
LeftUpLeg -0.330467 -1.63575 1.17445
LeftLeg 9.47769 -2.87123 3.69897
LeftFoot -3.60856 0.259033 -3.25184
LeftToes 1.53707e-010 -1.11459e-010 1.58109e-011
5
root 12.3461 39.9005 4.50049 -99.922 88.7086 -94.8936
RightUpLeg 3.41473 1.63453 2.11643
RightLeg 2.66206 5.08904 -1.01001
RightFoot -0.62817 -0.41555 3.83197
RightToes 4.07452e-010 -1.59028e-015 9.93923e-017
Spine -1.5558 -1.11428 0.657383
Spine1 9.56882 -1.46179 0.590794
HEad -22.4018 -1.41424 2.53456
LeftShoulder1 9.93923e-017 -0 1.22299e-017
LeftArm 1.95909 37.914 -80.2892
LeftForeArm -16.4585 -13.6311 -2.73257
LeftHand 1.22074 10.0423 -7.49777
RightShoulder 1.98785e-016 -4.96962e-017 1.55301e-017
RightArm 20.2128 -41.2059 83.6243
RightForeArm -36.9134 18.7579 -8.36897
RightHand 1.65146 -15.6811 -2.37098
LeftUpLeg -0.34938 -1.6871 1.13233
LeftLeg 9.48094 -2.84275 3.72066
LeftFoot -3.63763 0.257504 -3.23664
LeftToes 1.53707e-010 -1.11459e-010 1.58109e-011
6
root 12.3658 39.9005 4.48915 -98.1539 88.7012 -93.186
RightUpLeg 3.37809 1.66809 2.12775
RightLeg 2.65644 5.09 -1.0368
RightFoot -0.642566 -0.418933 3.86754
RightToes 4.07452e-010 -1.59028e-015 9.93923e-017
Spine -1.71521 -1.1178 0.73923
Spine1 9.67755 -1.44736 0.499898
HEad -22.837 -1.41252 2.65388
LeftShoulder1 9.93923e-017 -0 1.22299e-017
LeftArm 1.73102 37.9879 -80.3301
LeftForeArm -16.2203 -13.6252 -2.69534
LeftHand 1.22009 10.0325 -7.49258
RightShoulder 1.98785e-016 -4.96962e-017 1.55301e-017
RightArm 19.4525 -41.1809 83.5968
RightForeArm -36.3401 18.6391 -7.95938
RightHand 1.61863 -15.5701 -2.12958
LeftUpLeg -0.387005 -1.67533 1.12678
LeftLeg 9.50072 -2.80325 3.72285
LeftFoot -3.68129 0.255535 -3.21709
LeftToes 1.53707e-010 -1.11459e-010 1.58109e-011
7
root 12.3863 39.9005 4.47971 -94.646 88.7096 -89.7174
RightUpLeg 3.34156 1.69358 2.12383
RightLeg 2.68624 5.14256 -1.06775
RightFoot -0.676344 -0.422676 3.90689
RightToes 4.07452e-010 -1.59028e-015 9.93923e-017
Spine -1.81183 -1.08203 0.821127
Spine1 9.70391 -1.38778 0.401735
HEad -23.2213 -1.50184 2.72962
LeftShoulder1 9.93923e-017 -0 1.22299e-017
LeftArm 1.66863 38.0059 -80.3254
LeftForeArm -16.4023 -13.6385 -2.68329
LeftHand 1.2308 10.2487 -7.69465
RightShoulder 1.98785e-016 -4.96962e-017 1.55301e-017
RightArm 19.1106 -41.2598 83.5969
RightForeArm -35.7548 18.5545 -7.6895
RightHand 1.63915 -15.5707 -2.37734
LeftUpLeg -0.382222 -1.64092 1.11484
LeftLeg 9.49924 -2.73923 3.71641
LeftFoot -3.71998 0.254751 -3.2093
LeftToes 1.53707e-010 -1.11459e-010 1.58109e-011
8
root 12.4071 39.9005 4.47239 -90.9617 88.7157 -86.0567
RightUpLeg 3.32977 1.70539 2.11173
RightLeg 2.70193 5.21851 -1.08526
RightFoot -0.707192 -0.423571 3.9163
RightToes 4.07452e-010 -1.59028e-015 9.93923e-017
Spine -1.89221 -1.04085 0.837681
Spine1 9.72444 -1.34441 0.394885
HEad -23.5343 -1.67338 2.71596
LeftShoulder1 9.93923e-017 -0 1.22299e-017
LeftArm 1.7328 37.9459 -80.3003
LeftForeArm -16.7166 -13.6342 -2.71514
LeftHand 1.23776 10.3853 -7.80373
RightShoulder 1.98785e-016 -4.96962e-017 1.55301e-017
RightArm 19.164 -41.3258 83.6011
RightForeArm -35.093 18.4781 -7.43081
RightHand 1.70102 -15.7318 -2.8913
LeftUpLeg -0.354733 -1.61609 1.09897
LeftLeg 9.49096 -2.67402 3.72048
LeftFoot -3.74753 0.254288 -3.2047
LeftToes 1.53707e-010 -1.11459e-010 1.58109e-011
9
root 12.4242 39.9005 4.46659 -88.406 88.6917 -83.5306
RightUpLeg 3.33323 1.72904 2.13058
RightLeg 2.67274 5.25153 -1.09132
RightFoot -0.707755 -0.42244 3.90441
RightToes 4.07452e-010 -1.59028e-015 9.93923e-017
Spine -1.95334 -1.02256 0.774004
Spine1 9.7385 -1.36179 0.532504
HEad -23.7619 -1.7681 2.66603
LeftShoulder1 9.93923e-017 -0 1.22299e-017
LeftArm 1.79081 37.8748 -80.2781
LeftForeArm -16.6509 -13.6197 -2.7349
LeftHand 1.22614 10.1288 -7.53179
RightShoulder 1.98785e-016 -4.96962e-017 1.55301e-017
RightArm 19.2342 -41.2728 83.5545
RightForeArm -34.5693 18.3861 -7.08981
RightHand 1.75282 -15.9165 -3.23609
LeftUpLeg -0.362462 -1.59651 1.11257
LeftLeg 9.51248 -2.64059 3.73171
LeftFoot -3.77278 0.252854 -3.19045
LeftToes 1.53707e-010 -1.11459e-010 1.58109e-011
10
root 12.4368 39.9005 4.46201 -88.143 88.6575 -83.3018
RightUpLeg 3.33788 1.7504 2.16488
RightLeg 2.63043 5.22247 -1.09216
RightFoot -0.694038 -0.424266 3.9236
RightToes 4.07452e-010 -1.59028e-015 9.93923e-017
Spine -1.95957 -1.02768 0.638689
Spine1 9.69914 -1.42872 0.78254
HEad -23.8699 -1.71679 2.61093
LeftShoulder1 9.93923e-017 -0 1.22299e-017
LeftArm 1.96431 37.8226 -80.2536
LeftForeArm -16.5646 -13.6803 -2.69124
LeftHand 1.21043 9.77767 -7.09233
RightShoulder 1.98785e-016 -4.96962e-017 1.55301e-017
RightArm 19.2565 -41.1867 83.4535
RightForeArm -34.4978 18.3332 -6.87027
RightHand 1.76462 -15.9495 -3.32525
LeftUpLeg -0.405514 -1.59559 1.14656
LeftLeg 9.56089 -2.63906 3.72947
LeftFoot -3.80128 0.251934 -3.18132
LeftToes 1.53707e-010 -1.11459e-010 1.58109e-011
11
root 12.4488 39.8999 4.45855 -89.5318 88.6459 -84.7057
RightUpLeg 3.35398 1.74069 2.17264
RightLeg 2.61342 5.18523 -1.08692
RightFoot -0.699836 -0.429525 3.97889
RightToes 4.07452e-010 -1.59028e-015 9.93923e-017
Spine -1.91705 -1.03943 0.444641
Spine1 9.62594 -1.51107 1.09039
HEad -23.8712 -1.59564 2.54185
LeftShoulder1 9.93923e-017 -0 1.22299e-017
LeftArm 2.40009 37.7423 -80.2181
LeftForeArm -17.207 -13.869 -2.5942
LeftHand 1.22079 9.86895 -6.95609
RightShoulder 1.98785e-016 -4.96962e-017 1.55301e-017
RightArm 19.3925 -41.1905 83.3434
RightForeArm -34.8396 18.3653 -6.94769
RightHand 1.75138 -15.8445 -3.32378
LeftUpLeg -0.431602 -1.64334 1.16556
LeftLeg 9.61504 -2.6265 3.71192
LeftFoot -3.837 0.252974 -3.19165
LeftToes 1.53707e-010 -1.11459e-010 1.58109e-011
12
root 12.4616 39.8977 4.45534 -89.8171 88.6416 -84.9835
RightUpLeg 3.38274 1.72197 2.16555
RightLeg 2.6162 5.19922 -1.07961
RightFoot -0.723102 -0.432165 4.00665
RightToes 4.07452e-010 -1.59028e-015 9.93923e-017
Spine -1.85498 -1.03974 0.224025
Spine1 9.55861 -1.58721 1.4281
HEad -23.8711 -1.46049 2.50276
LeftShoulder1 9.93923e-017 -0 1.22299e-017
LeftArm 2.88082 37.6491 -80.1929
LeftForeArm -18.2394 -14.113 -2.46973
LeftHand 1.2464 10.25 -7.13652
RightShoulder 1.98785e-016 -4.96962e-017 1.55301e-017
RightArm 19.6197 -41.2471 83.2426
RightForeArm -35.4161 18.4461 -7.1949
RightHand 1.73282 -15.7649 -3.22175
LeftUpLeg -0.428566 -1.71956 1.17349
LeftLeg 9.67928 -2.56227 3.70188
LeftFoot -3.88472 0.254358 -3.20539
LeftToes 1.53707e-010 -1.11459e-010 1.58109e-011
13
root 12.4717 39.8956 4.45108 -87.4538 88.6148 -82.6243
RightUpLeg 3.38814 1.73301 2.18031
RightLeg 2.61854 5.25688 -1.07618
RightFoot -0.736623 -0.429819 3.98198
RightToes 4.07452e-010 -1.59028e-015 9.93923e-017
Spine -1.79289 -1.02555 0.0360537
Spine1 9.48714 -1.64538 1.73883
HEad -23.9665 -1.28729 2.55556
LeftShoulder1 9.93923e-017 -0 1.22299e-017
LeftArm 3.05039 37.6194 -80.1887
LeftForeArm -18.4803 -14.2661 -2.3501
LeftHand 1.24438 10.2377 -7.17084
RightShoulder 1.98785e-016 -4.96962e-017 1.55301e-017
RightArm 19.7434 -41.2512 83.1428
RightForeArm -36.1611 18.5184 -7.39159
RightHand 1.70889 -15.7657 -2.93667
LeftUpLeg -0.442855 -1.76342 1.19641
LeftLeg 9.7569 -2.474 3.70977
LeftFoot -3.93561 0.254269 -3.2081
LeftToes 1.53707e-010 -1.11459e-010 1.58109e-011
14
root 12.4799 39.8943 4.44488 -84.6442 88.5763 -79.8464
RightUpLeg 3.36244 1.75718 2.20405
RightLeg 2.61361 5.30436 -1.07376
RightFoot -0.737156 -0.428426 3.96733
RightToes 4.07452e-010 -1.59028e-015 9.93923e-017
Spine -1.77116 -1.01672 -0.0507303
Spine1 9.43417 -1.67718 1.90227
HEad -24.139 -1.09534 2.6741
LeftShoulder1 9.93923e-017 -0 1.22299e-017
LeftArm 2.89711 37.6207 -80.1552
LeftForeArm -17.7446 -14.2473 -2.3031
LeftHand 1.21497 9.78253 -6.91137
RightShoulder 1.98785e-016 -4.96962e-017 1.55301e-017
RightArm 19.7758 -41.2167 83.0874
RightForeArm -36.934 18.5767 -7.52163
RightHand 1.68264 -15.7448 -2.65428
LeftUpLeg -0.485223 -1.76044 1.22616
LeftLeg 9.82119 -2.43669 3.717
LeftFoot -3.97434 0.253702 -3.21449
LeftToes 1.53707e-010 -1.11459e-010 1.58109e-011
